# xmcd CD database file
#
# Track frame offsets:
#	150
#	15798
#	25688
#
# Disc length: 558 seconds
#
# Revision: 0
# Processed by: cddbd v1.5PL3 Copyright (c) Steve Scherf et al.
# Submitted via: CDex 1.50beta10
#
DISCID=0e022c03
DTITLE=BEAT CRUSADERS - GIRL FRYDAY
DYEAR=2003
DGENRE=Pop
TTITLE0=GIRL FRYDAY
TTITLE1=DAMNATION
TTITLE2=FOLLOW ME
EXTD=YEAR: 2003
EXTT0=
EXTT1=
EXTT2=
PLAYORDER=
